TITLE ""
FILE "DISC2Track30.mp3" MP3
  TRACK 01 AUDIO
    TITLE "DISC2Track30_01"
    INDEX 01 00:00:00
  TRACK 02 AUDIO
    TITLE "DISC2Track30_02"
    INDEX 01 00:01:72
  TRACK 03 AUDIO
    TITLE "DISC2Track30_03"
    INDEX 01 00:02:11
  TRACK 04 AUDIO
    TITLE "DISC2Track30_04"
    INDEX 01 00:04:47
  TRACK 05 AUDIO
    TITLE "DISC2Track30_05"
    INDEX 01 00:07:38
  TRACK 06 AUDIO
    TITLE "DISC2Track30_06"
    INDEX 01 00:09:66
  TRACK 07 AUDIO
    TITLE "DISC2Track30_07"
    INDEX 01 00:10:07
  TRACK 08 AUDIO
    TITLE "DISC2Track30_08"
    INDEX 01 00:12:08
  TRACK 09 AUDIO
    TITLE "DISC2Track30_09"
    INDEX 01 00:14:12
  TRACK 10 AUDIO
    TITLE "DISC2Track30_10"
    INDEX 01 00:15:63
  TRACK 11 AUDIO
    TITLE "DISC2Track30_11"
    INDEX 01 00:16:03
  TRACK 12 AUDIO
    TITLE "DISC2Track30_12"
    INDEX 01 00:20:68
  TRACK 13 AUDIO
    TITLE "DISC2Track30_13"
    INDEX 01 00:24:09
  TRACK 14 AUDIO
    TITLE "DISC2Track30_14"
    INDEX 01 00:27:01
  TRACK 15 AUDIO
    TITLE "DISC2Track30_15"
    INDEX 01 00:27:17
  TRACK 16 AUDIO
    TITLE "DISC2Track30_16"
    INDEX 01 00:28:61
  TRACK 17 AUDIO
    TITLE "DISC2Track30_17"
    INDEX 01 00:31:01
  TRACK 18 AUDIO
    TITLE "DISC2Track30_18"
    INDEX 01 00:32:57
  TRACK 19 AUDIO
    TITLE "DISC2Track30_19"
    INDEX 01 00:32:73
  TRACK 20 AUDIO
    TITLE "DISC2Track30_20"
    INDEX 01 00:37:33
  TRACK 21 AUDIO
    TITLE "DISC2Track30_21"
    INDEX 01 00:40:53
  TRACK 22 AUDIO
    TITLE "DISC2Track30_22"
    INDEX 01 00:43:51
  TRACK 23 AUDIO
    TITLE "DISC2Track30_23"
    INDEX 01 00:43:67
  TRACK 24 AUDIO
    TITLE "DISC2Track30_24"
    INDEX 01 00:48:13
  TRACK 25 AUDIO
    TITLE "DISC2Track30_25"
    INDEX 01 00:51:47
  TRACK 26 AUDIO
    TITLE "DISC2Track30_26"
    INDEX 01 00:54:35
  TRACK 27 AUDIO
    TITLE "DISC2Track30_27"
    INDEX 01 00:54:63
  TRACK 28 AUDIO
    TITLE "DISC2Track30_28"
    INDEX 01 00:58:67
  TRACK 29 AUDIO
    TITLE "DISC2Track30_29"
    INDEX 01 01:02:27
  TRACK 30 AUDIO
    TITLE "DISC2Track30_30"
    INDEX 01 01:05:29
  TRACK 31 AUDIO
    TITLE "DISC2Track30_31"
    INDEX 01 01:05:45
  TRACK 32 AUDIO
    TITLE "DISC2Track30_32"
    INDEX 01 01:10:05
  TRACK 33 AUDIO
    TITLE "DISC2Track30_33"
    INDEX 01 01:13:35
  TRACK 34 AUDIO
    TITLE "DISC2Track30_34"
    INDEX 01 01:16:27
  TRACK 35 AUDIO
    TITLE "DISC2Track30_35"
    INDEX 01 01:16:47
  TRACK 36 AUDIO
    TITLE "DISC2Track30_36"
    INDEX 01 01:20:52
  TRACK 37 AUDIO
    TITLE "DISC2Track30_37"
    INDEX 01 01:25:01
  TRACK 38 AUDIO
    TITLE "DISC2Track30_38"
    INDEX 01 01:28:62
  TRACK 39 AUDIO
    TITLE "DISC2Track30_39"
    INDEX 01 01:29:02
  TRACK 40 AUDIO
    TITLE "DISC2Track30_40"
    INDEX 01 01:33:12
  TRACK 41 AUDIO
    TITLE "DISC2Track30_41"
    INDEX 01 01:38:09
  TRACK 42 AUDIO
    TITLE "DISC2Track30_42"
    INDEX 01 01:42:50
  TRACK 43 AUDIO
    TITLE "DISC2Track30_43"
    INDEX 01 01:42:68
  TRACK 44 AUDIO
    TITLE "DISC2Track30_44"
    INDEX 01 01:48:13
  TRACK 45 AUDIO
    TITLE "DISC2Track30_45"
    INDEX 01 01:52:54
  TRACK 46 AUDIO
    TITLE "DISC2Track30_46"
    INDEX 01 01:57:01
  TRACK 47 AUDIO
    TITLE "DISC2Track30_47"
    INDEX 01 01:57:14
  TRACK 48 AUDIO
    TITLE "DISC2Track30_48"
    INDEX 01 02:00:62
  TRACK 49 AUDIO
    TITLE "DISC2Track30_49"
    INDEX 01 02:04:11
  TRACK 50 AUDIO
    TITLE "DISC2Track30_50"
    INDEX 01 02:07:05
